HIERARCHY
ROOT hip
{
  OFFSET 0 0 0
  CHANNELS 6 Xposition Yposition Zposition Zrotation Yrotation Xrotation
  JOINT abdomen
  {
    OFFSET 0 20.6881 -0.73152
    CHANNELS 3 Zrotation Xrotation Yrotation
    JOINT chest
    {
      OFFSET 0 11.7043 -0.48768
      CHANNELS 3 Zrotation Xrotation Yrotation
      JOINT neck
      {
        OFFSET 0 22.1894 -2.19456
        CHANNELS 3 Zrotation Xrotation Yrotation
        JOINT head
        {
          OFFSET -0.24384 7.07133 1.2192
          CHANNELS 3 Zrotation Xrotation Yrotation
          JOINT leftEye
          {
            OFFSET 4.14528 8.04674 8.04672
            CHANNELS 3 Zrotation Xrotation Yrotation
            End Site
            {
              OFFSET 1 0 0
            }
          }
          JOINT rightEye
          {
            OFFSET -3.6576 8.04674 8.04672
            CHANNELS 3 Zrotation Xrotation Yrotation
            End Site
            {
              OFFSET 1 0 0
            }
          }
        }
      }
      JOINT rCollar
      {
        OFFSET -2.68224 19.2634 -4.8768
        CHANNELS 3 Zrotation Xrotation Yrotation
        JOINT rShldr
        {
          OFFSET -8.77824 -1.95073 1.46304
          CHANNELS 3 Zrotation Xrotation Yrotation
          JOINT rForeArm
          {
            OFFSET -28.1742 -1.7115 0.48768
            CHANNELS 3 Zrotation Xrotation Yrotation
            JOINT rHand
            {
              OFFSET -22.5879 0.773209 7.07136
              CHANNELS 3 Zrotation Xrotation Yrotation
              JOINT rThumb1
              {
                OFFSET -1.2192 -0.487915 3.41376
                CHANNELS 3 Zrotation Xrotation Yrotation
                JOINT rThumb2
                {
                  OFFSET -3.37035 -0.52449 3.41376
                  CHANNELS 3 Zrotation Xrotation Yrotation
                  End Site
                  {
                    OFFSET -1.78271 -1.18214 1.43049
                  }
                }
              }
              JOINT rIndex1
              {
                OFFSET -7.75947 0.938293 5.60832
                CHANNELS 3 Zrotation Xrotation Yrotation
                JOINT rIndex2
                {
                  OFFSET -2.54057 -0.884171 1.56538
                  CHANNELS 3 Zrotation Xrotation Yrotation
                  End Site
                  {
                    OFFSET -1.62519 -0.234802 1.16502
                  }
                }
              }
              JOINT rMid1
              {
                OFFSET -8.24714 1.18213 3.41376
                CHANNELS 3 Zrotation Xrotation Yrotation
                JOINT rMid2
                {
                  OFFSET -3.10165 -0.590103 1.0647
                  CHANNELS 3 Zrotation Xrotation Yrotation
                  End Site
                  {
                    OFFSET -2.48547 -0.328903 0.83742
                  }
                }
              }
              JOINT rRing1
              {
                OFFSET -8.82822 0.546677 1.51678
                CHANNELS 3 Zrotation Xrotation Yrotation
                JOINT rRing2
                {
                  OFFSET -2.60934 -0.819778 -0.0198488
                  CHANNELS 3 Zrotation Xrotation Yrotation
                  End Site
                  {
                    OFFSET -2.33842 -0.294052 0.168128
                  }
                }
              }
              JOINT rPinky1
              {
                OFFSET -8.27202 -0.0477905 -0.4584
                CHANNELS 3 Zrotation Xrotation Yrotation
                JOINT rPinky2
                {
                  OFFSET -1.82734 -0.647385 -0.700984
                  CHANNELS 3 Zrotation Xrotation Yrotation
                  End Site
                  {
                    OFFSET -1.69225 -0.51767 -0.607171
                  }
                }
              }
            }
          }
        }
      }
      JOINT lCollar
      {
        OFFSET 2.68224 19.2634 -4.8768
        CHANNELS 3 Zrotation Xrotation Yrotation
        JOINT lShldr
        {
          OFFSET 8.77824 -1.95073 1.46304
          CHANNELS 3 Zrotation Xrotation Yrotation
          JOINT lForeArm
          {
            OFFSET 28.1742 -1.7115 0.48768
            CHANNELS 3 Zrotation Xrotation Yrotation
            JOINT lHand
            {
              OFFSET 22.5879 0.773209 7.07136
              CHANNELS 3 Zrotation Xrotation Yrotation
              JOINT lThumb1
              {
                OFFSET 1.2192 -0.487915 3.41376
                CHANNELS 3 Zrotation Xrotation Yrotation
                JOINT lThumb2
                {
                  OFFSET 3.37035 -0.52449 3.41376
                  CHANNELS 3 Zrotation Xrotation Yrotation
                  End Site
                  {
                    OFFSET 1.78271 -1.18214 1.43049
                  }
                }
              }
              JOINT lIndex1
              {
                OFFSET 7.75947 0.938293 5.60832
                CHANNELS 3 Zrotation Xrotation Yrotation
                JOINT lIndex2
                {
                  OFFSET 2.54057 -0.884171 1.56538
                  CHANNELS 3 Zrotation Xrotation Yrotation
                  End Site
                  {
                    OFFSET 1.62519 -0.234802 1.16502
                  }
                }
              }
              JOINT lMid1
              {
                OFFSET 8.24714 1.18213 3.41376
                CHANNELS 3 Zrotation Xrotation Yrotation
                JOINT lMid2
                {
                  OFFSET 3.10165 -0.590103 1.0647
                  CHANNELS 3 Zrotation Xrotation Yrotation
                  End Site
                  {
                    OFFSET 2.48547 -0.328903 0.83742
                  }
                }
              }
              JOINT lRing1
              {
                OFFSET 8.82822 0.546677 1.51678
                CHANNELS 3 Zrotation Xrotation Yrotation
                JOINT lRing2
                {
                  OFFSET 2.60934 -0.819778 -0.0198488
                  CHANNELS 3 Zrotation Xrotation Yrotation
                  End Site
                  {
                    OFFSET 2.33842 -0.294052 0.168128
                  }
                }
              }
              JOINT lPinky1
              {
                OFFSET 8.27202 -0.0477905 -0.4584
                CHANNELS 3 Zrotation Xrotation Yrotation
                JOINT lPinky2
                {
                  OFFSET 1.82734 -0.647385 -0.700984
                  CHANNELS 3 Zrotation Xrotation Yrotation
                  End Site
                  {
                    OFFSET 1.69225 -0.51767 -0.607171
                  }
                }
              }
            }
          }
        }
      }
    }
  }
  JOINT rButtock
  {
    OFFSET -8.77824 4.35084 1.2192
    CHANNELS 3 Zrotation Xrotation Yrotation
    JOINT rThigh
    {
      OFFSET 0 -1.70687 -2.19456
      CHANNELS 3 Zrotation Xrotation Yrotation
      JOINT rShin
      {
        OFFSET 0 -36.8199 0.73152
        CHANNELS 3 Zrotation Xrotation Yrotation
        JOINT rFoot
        {
          OFFSET 0.73152 -45.1104 -5.12064
          CHANNELS 3 Zrotation Xrotation Yrotation
          End Site
          {
            OFFSET -1.1221 -3.69964 12.103
          }
        }
      }
    }
  }
  JOINT lButtock
  {
    OFFSET 8.77824 4.35084 1.2192
    CHANNELS 3 Zrotation Xrotation Yrotation
    JOINT lThigh
    {
      OFFSET 0 -1.70687 -2.19456
      CHANNELS 3 Zrotation Xrotation Yrotation
      JOINT lShin
      {
        OFFSET 0 -36.8199 0.73152
        CHANNELS 3 Zrotation Xrotation Yrotation
        JOINT lFoot
        {
          OFFSET -0.73152 -45.1104 -5.12064
          CHANNELS 3 Zrotation Xrotation Yrotation
          End Site
          {
            OFFSET 1.1221 -3.69964 12.103
          }
        }
      }
    }
  }
}
MOTION
Frames: 4
Frame Time:	0.06666666
-98.6561 83.6554 71.8139 0.0 0.0 0.0 -2.30018 -0.000942062 -0.0623533 -0.634484 0.0083085 -0.109828 -1.06037e-14 7.95139e-16 -7.20595e-16 -3.06719e-14 3.18055e-15 -2.11519e-15 -0.0 0.0 0.0 -0.0 0.0 0.0 -5.02129e-15 -8.5027e-17 -1.98785e-16 -1.04981e-13 -2.17421e-15 -6.95746e-15 -1.83642e-12 4.93384e-13 -1.24042e-13 -2.10173e-11 -8.7023e-13 -1.46942e-12 -4.95802e-11 -8.14318e-13 -3.44772e-12 -8.56325e-11 -1.40581e-12 -5.95638e-12 -4.95773e-11 -8.15812e-13 -3.44772e-12 7.73091 5.47488 0.417314 -4.95802e-11 -8.14918e-13 -3.44772e-12 2.90554 0.965183 0.102902 -4.958e-11 -8.14421e-13 -3.44852e-12 10.2786 0.731801 0.0259123 -4.95856e-11 -8.11837e-13 -3.44136e-12 2.22167 -0.733487 -0.20892 -5.21646e-15 -8.3474e-17 -4.47265e-16 -1.07385e-13 -2.20527e-15 -8.54774e-15 -1.83096e-12 -6.14841e-13 -1.39944e-13 -2.10269e-11 2.36057e-13 -1.45033e-12 -4.95864e-11 -8.16476e-13 -3.44454e-12 -8.56245e-11 -1.40899e-12 -5.94525e-12 -4.95896e-11 -8.18198e-13 -3.43818e-12 -7.73091 5.47488 -0.417314 -4.9585e-11 -8.16806e-13 -3.45408e-12 -2.90554 0.965183 -0.102902 -4.95918e-11 -8.16309e-13 -3.44693e-12 -10.2786 0.731801 -0.0259123 -4.95799e-11 -8.14222e-13 -3.45726e-12 -2.22167 -0.733487 0.20892 -2.03217e-16 0.0 -3.88251e-19 -1.28244 -1.92859 0.00418293 -0.00873125 -2.07863 -0.0718002 -0.463219 3.99877 0.133105 2.03217e-16 0.0 3.88251e-19 -2.21817 -7.92851 0.228493 -0.00571571 8.78926 -0.145005 0.509184 -0.869118 -0.0398808
-95.1225 82.3541 63.8433 -173.663 65.4958 -171.544 -2.53442 2.55386 -1.64452 -0.105472 -3.172 -0.574824 -9.23903 6.51882 -7.88062 11.2455 0.74623 -14.2091 -0.0 0.0 0.0 -0.0 0.0 0.0 2.13431e-14 5.43082e-13 5.85219e-13 46.2098 18.5904 3.532 -6.31233 -2.62244 10.5858 -0.0253906 9.53156 1.33835 -4.07629e-09 1.15518e-09 -2.15132e-10 -7.04395e-09 2.00792e-09 -3.12874e-10 -4.07629e-09 1.15518e-09 -2.15138e-10 7.73091 5.47488 0.417314 -4.07629e-09 1.15518e-09 -2.1513e-10 2.90554 0.965183 0.102902 -4.07628e-09 1.15518e-09 -2.15131e-10 10.2786 0.731801 0.0259123 -4.07629e-09 1.15518e-09 -2.15125e-10 2.22167 -0.733487 -0.20892 2.10771e-14 5.43077e-13 5.8497e-13 -45.7667 14.4085 -2.19624 6.62209 -2.81018 -11.0839 0.00296056 2.90459 -0.408223 -2.31032e-09 3.91695e-09 -1.28839e-09 -4.00084e-09 6.78786e-09 -2.21434e-09 -2.31032e-09 3.91695e-09 -1.28839e-09 -7.73091 5.47488 -0.417314 -2.31031e-09 3.91695e-09 -1.2884e-09 -2.90554 0.965183 -0.102902 -2.31032e-09 3.91695e-09 -1.2884e-09 -10.2786 0.731801 -0.0259123 -2.31031e-09 3.91695e-09 -1.28841e-09 -2.22167 -0.733487 0.20892 -2.03217e-16 0.0 -3.88251e-19 0.756663 -7.55188 5.73015 -0.0173274 13.2603 0.240568 -1.95656 -5.40522 -8.27494 2.03217e-16 0.0 3.88251e-19 -3.42408 -13.2919 -4.89545 0.0159276 22.1079 -0.377267 2.64169 -10.1511 9.32021
-95.2081 82.3195 63.7697 -173.835 65.051 -171.392 -2.52311 4.52086 -2.84396 0.264932 -5.65243 -0.927735 -15.0993 11.0807 -14.0608 20.0302 1.67868 -24.9792 -0.0 0.0 0.0 -0.0 0.0 0.0 3.43636e-14 8.27345e-13 9.03427e-13 80.2858 32.5686 7.01244 -10.514 -4.45967 18.769 -0.376324 17.1818 2.49062 -6.31157e-09 1.73944e-09 -2.38176e-10 -1.09053e-08 3.0238e-09 -3.20314e-10 -6.31157e-09 1.73944e-09 -2.38185e-10 7.73091 5.47488 0.417314 -6.31157e-09 1.73944e-09 -2.38173e-10 2.90554 0.965183 0.102902 -6.31156e-09 1.73944e-09 -2.38174e-10 10.2786 0.731801 0.0259123 -6.31157e-09 1.73944e-09 -2.38169e-10 2.22167 -0.733487 -0.20892 3.40703e-14 8.27337e-13 9.03178e-13 -80.486 25.8178 -4.32223 11.0659 -4.81475 -19.8161 0.0289901 4.85448 -0.683906 -3.4827e-09 6.10273e-09 -2.06253e-09 -6.0319e-09 1.05757e-08 -3.54539e-09 -3.4827e-09 6.10273e-09 -2.06253e-09 -7.73091 5.47488 -0.417314 -3.4827e-09 6.10273e-09 -2.06253e-09 -2.90554 0.965183 -0.102902 -3.48271e-09 6.10273e-09 -2.06254e-09 -10.2786 0.731801 -0.0259123 -3.48269e-09 6.10273e-09 -2.06255e-09 -2.22167 -0.733487 0.20892 -2.03217e-16 0.0 -3.88251e-19 3.14942 -11.7755 10.2691 -0.149627 25.1734 0.52224 -5.06899 -12.4618 -15.128 2.03217e-16 0.0 3.88251e-19 -5.04362 -17.3866 -9.11834 0.123755 32.5467 -0.606001 6.44189 -16.9215 17.0146
-95.2195 82.2722 63.6926 -173.241 64.5771 -170.774 -2.11465 4.71623 -2.8851 0.286729 -6.03447 -0.936639 -15.575 10.6121 -14.4279 20.4645 3.60064 -25.4593 -0.0 0.0 0.0 -0.0 0.0 0.0 -1.33797e-15 2.20248e-13 3.29958e-13 85.0249 33.1006 7.28208 -10.8725 -4.57847 19.5589 -0.508941 19.3456 2.83416 -2.61724e-09 3.36718e-10 4.75925e-10 -4.51393e-09 5.8741e-10 8.58027e-10 -2.61724e-09 3.36718e-10 4.75916e-10 7.73091 5.47488 0.417314 -2.61724e-09 3.36717e-10 4.75923e-10 2.90554 0.965183 0.102902 -2.61723e-09 3.36717e-10 4.75924e-10 10.2786 0.731801 0.0259123 -2.61724e-09 3.36717e-10 4.75926e-10 2.22167 -0.733487 -0.20892 -1.49788e-15 2.20243e-13 3.29703e-13 -85.1791 28.465 -5.20854 11.7751 -5.1598 -21.3142 0.0168803 3.83026 -0.539023 -9.31976e-10 2.52825e-09 -1.23542e-09 -1.61816e-09 4.38114e-09 -2.12741e-09 -9.3198e-10 2.52825e-09 -1.23542e-09 -7.73091 5.47488 -0.417314 -9.31976e-10 2.52825e-09 -1.23542e-09 -2.90554 0.965183 -0.102902 -9.31982e-10 2.52825e-09 -1.23542e-09 -10.2786 0.731801 -0.0259123 -9.3197e-10 2.52825e-09 -1.23543e-09 -2.22167 -0.733487 0.20892 -2.03217e-16 0.0 -3.88251e-19 3.62824 -12.263 10.7328 -0.177688 26.7849 0.569677 -5.75657 -13.7018 -16.2316 2.03217e-16 0.0 3.88251e-19 -5.28817 -18.1572 -9.99715 0.154901 34.353 -0.650657 7.07288 -18.0011 17.8329
